<?xml version="1.0" encoding="UTF-8" standalone="no"?>
<!DOCTYPE svg PUBLIC "-//W3C//DTD SVG 1.1//EN" "http://www.w3.org/Graphics/SVG/1.1/DTD/svg11.dtd">
<svg width="100%" height="100%" viewBox="0 0 612 119" version="1.1" xmlns="http://www.w3.org/2000/svg" xmlns:xlink="http://www.w3.org/1999/xlink" xml:space="preserve" xmlns:serif="http://www.serif.com/" style="fill-rule:evenodd;clip-rule:evenodd;stroke-linejoin:round;stroke-miterlimit:2;">
    <rect id="Artboard1" x="0" y="0" width="611.93" height="118.845" style="fill:none;"/>
    <g id="Artboard11" serif:id="Artboard1">
        <g transform="matrix(12.5047,0,0,12.5047,-2612.54,-4823.28)">
            <g transform="matrix(12,0,0,12,208.529,395.125)">
                <path d="M0.528,-0.48C0.515,-0.503 0.497,-0.521 0.474,-0.534C0.45,-0.546 0.422,-0.552 0.39,-0.552C0.335,-0.552 0.29,-0.534 0.257,-0.498C0.224,-0.461 0.207,-0.413 0.207,-0.352C0.207,-0.287 0.225,-0.237 0.26,-0.201C0.295,-0.164 0.343,-0.146 0.404,-0.146C0.446,-0.146 0.482,-0.157 0.511,-0.178C0.54,-0.199 0.561,-0.23 0.574,-0.27L0.357,-0.27L0.357,-0.396L0.729,-0.396L0.729,-0.237C0.716,-0.194 0.695,-0.155 0.665,-0.118C0.634,-0.081 0.596,-0.052 0.549,-0.029C0.502,-0.006 0.45,0.005 0.391,0.005C0.322,0.005 0.26,-0.01 0.206,-0.041C0.151,-0.071 0.109,-0.113 0.079,-0.167C0.048,-0.221 0.033,-0.283 0.033,-0.352C0.033,-0.421 0.048,-0.483 0.079,-0.538C0.109,-0.592 0.151,-0.634 0.205,-0.665C0.259,-0.695 0.321,-0.71 0.39,-0.71C0.474,-0.71 0.545,-0.69 0.603,-0.649C0.66,-0.608 0.698,-0.552 0.717,-0.48L0.528,-0.48Z" style="fill:white;fill-rule:nonzero;"/>
            </g>
            <g transform="matrix(12,0,0,12,217.073,395.125)">
                <path d="M0.597,-0.476C0.597,-0.435 0.588,-0.398 0.569,-0.365C0.55,-0.331 0.522,-0.304 0.483,-0.283C0.444,-0.262 0.396,-0.252 0.339,-0.252L0.233,-0.252L0.233,-0L0.062,-0L0.062,-0.702L0.339,-0.702C0.395,-0.702 0.442,-0.692 0.481,-0.673C0.52,-0.654 0.549,-0.627 0.568,-0.593C0.587,-0.559 0.597,-0.52 0.597,-0.476ZM0.326,-0.388C0.359,-0.388 0.383,-0.396 0.399,-0.411C0.415,-0.426 0.423,-0.448 0.423,-0.476C0.423,-0.504 0.415,-0.526 0.399,-0.541C0.383,-0.556 0.359,-0.564 0.326,-0.564L0.233,-0.564L0.233,-0.388L0.326,-0.388Z" style="fill:white;fill-rule:nonzero;"/>
            </g>
            <g transform="matrix(12,0,0,12,224.081,395.125)">
                <path d="M0.23,-0.702L0.23,-0.282C0.23,-0.24 0.24,-0.208 0.261,-0.185C0.282,-0.162 0.312,-0.151 0.352,-0.151C0.392,-0.151 0.423,-0.162 0.444,-0.185C0.465,-0.208 0.476,-0.24 0.476,-0.282L0.476,-0.702L0.647,-0.702L0.647,-0.283C0.647,-0.22 0.634,-0.167 0.607,-0.124C0.58,-0.081 0.545,-0.048 0.5,-0.026C0.454,-0.004 0.404,0.007 0.349,0.007C0.294,0.007 0.244,-0.004 0.201,-0.026C0.157,-0.047 0.122,-0.08 0.097,-0.124C0.072,-0.167 0.059,-0.22 0.059,-0.283L0.059,-0.702L0.23,-0.702Z" style="fill:white;fill-rule:nonzero;"/>
            </g>
            <g transform="matrix(12,0,0,12,232.181,395.125)">
                <path d="M0.342,-0.416L0.25,-0.416L0.25,-0L0.079,-0L0.079,-0.416L0.017,-0.416L0.017,-0.558L0.079,-0.558L0.079,-0.574C0.079,-0.643 0.099,-0.695 0.138,-0.731C0.177,-0.766 0.235,-0.784 0.311,-0.784C0.324,-0.784 0.333,-0.784 0.339,-0.783L0.339,-0.638C0.306,-0.64 0.283,-0.635 0.27,-0.624C0.257,-0.613 0.25,-0.592 0.25,-0.563L0.25,-0.558L0.342,-0.558L0.342,-0.416Z" style="fill:white;fill-rule:nonzero;"/>
            </g>
            <g transform="matrix(12,0,0,12,236.261,395.125)">
                <rect x="0.062" y="-0.74" width="0.171" height="0.74" style="fill:white;fill-rule:nonzero;"/>
            </g>
            <g transform="matrix(12,0,0,12,239.321,395.125)">
                <path d="M0.588,-0.288C0.588,-0.272 0.587,-0.255 0.585,-0.238L0.198,-0.238C0.201,-0.203 0.212,-0.177 0.232,-0.159C0.251,-0.14 0.275,-0.131 0.304,-0.131C0.347,-0.131 0.376,-0.149 0.393,-0.185L0.575,-0.185C0.566,-0.148 0.549,-0.115 0.525,-0.086C0.5,-0.057 0.47,-0.034 0.433,-0.017C0.396,-0 0.355,0.008 0.31,0.008C0.255,0.008 0.207,-0.004 0.164,-0.027C0.121,-0.05 0.088,-0.084 0.064,-0.127C0.04,-0.17 0.028,-0.221 0.028,-0.279C0.028,-0.337 0.04,-0.388 0.064,-0.431C0.087,-0.474 0.12,-0.508 0.163,-0.531C0.206,-0.554 0.255,-0.566 0.31,-0.566C0.364,-0.566 0.412,-0.555 0.454,-0.532C0.496,-0.509 0.529,-0.477 0.553,-0.435C0.576,-0.393 0.588,-0.344 0.588,-0.288ZM0.413,-0.333C0.413,-0.362 0.403,-0.386 0.383,-0.403C0.363,-0.42 0.338,-0.429 0.308,-0.429C0.279,-0.429 0.255,-0.421 0.236,-0.404C0.216,-0.387 0.204,-0.364 0.199,-0.333L0.413,-0.333Z" style="fill:white;fill-rule:nonzero;"/>
            </g>
            <g transform="matrix(12,0,0,12,246.473,395.125)">
                <path d="M0.588,-0.288C0.588,-0.272 0.587,-0.255 0.585,-0.238L0.198,-0.238C0.201,-0.203 0.212,-0.177 0.232,-0.159C0.251,-0.14 0.275,-0.131 0.304,-0.131C0.347,-0.131 0.376,-0.149 0.393,-0.185L0.575,-0.185C0.566,-0.148 0.549,-0.115 0.525,-0.086C0.5,-0.057 0.47,-0.034 0.433,-0.017C0.396,-0 0.355,0.008 0.31,0.008C0.255,0.008 0.207,-0.004 0.164,-0.027C0.121,-0.05 0.088,-0.084 0.064,-0.127C0.04,-0.17 0.028,-0.221 0.028,-0.279C0.028,-0.337 0.04,-0.388 0.064,-0.431C0.087,-0.474 0.12,-0.508 0.163,-0.531C0.206,-0.554 0.255,-0.566 0.31,-0.566C0.364,-0.566 0.412,-0.555 0.454,-0.532C0.496,-0.509 0.529,-0.477 0.553,-0.435C0.576,-0.393 0.588,-0.344 0.588,-0.288ZM0.413,-0.333C0.413,-0.362 0.403,-0.386 0.383,-0.403C0.363,-0.42 0.338,-0.429 0.308,-0.429C0.279,-0.429 0.255,-0.421 0.236,-0.404C0.216,-0.387 0.204,-0.364 0.199,-0.333L0.413,-0.333Z" style="fill:white;fill-rule:nonzero;"/>
            </g>
            <g transform="matrix(12,0,0,12,253.385,395.125)">
                <path d="M0.373,-0.145L0.373,-0L0.286,-0C0.224,-0 0.176,-0.015 0.141,-0.046C0.106,-0.076 0.089,-0.125 0.089,-0.194L0.089,-0.416L0.021,-0.416L0.021,-0.558L0.089,-0.558L0.089,-0.694L0.26,-0.694L0.26,-0.558L0.372,-0.558L0.372,-0.416L0.26,-0.416L0.26,-0.192C0.26,-0.175 0.264,-0.163 0.272,-0.156C0.28,-0.149 0.293,-0.145 0.312,-0.145L0.373,-0.145Z" style="fill:white;fill-rule:nonzero;"/>
            </g>
        </g>
    </g>
</svg>
